<?xml version="1.0" encoding="utf-8"?>
<!-- Generator: Adobe Illustrator 23.0.0, SVG Export Plug-In . SVG Version: 6.00 Build 0)  -->
<svg version="1.1" id="Capa_1" xmlns="http://www.w3.org/2000/svg" xmlns:xlink="http://www.w3.org/1999/xlink" x="0px" y="0px"
	 viewBox="0 0 508.7 81.7" style="enable-background:new 0 0 508.7 81.7;" xml:space="preserve">
<style type="text/css">
	.st0{fill:#009FDF;}
	.st1{fill:url(#SVGID_1_);}
	.st2{fill:url(#SVGID_2_);}
	.st3{fill:url(#SVGID_3_);}
	.st4{fill:url(#SVGID_4_);}
	.st5{fill:url(#SVGID_5_);}
</style>
<path class="st0" d="M253.4,1.1H222h-3.7H203c-1.2,0-2.2,1-2.2,2.2v12.4c0,1.1,0.9,2.2,2.2,2.2h0.4h15.8H237h0.2h14.3h1.9
	c1.3,0,2.2-1,2.2-2.2V3.3C255.6,2.1,254.7,1.1,253.4,1.1z"/>
<path class="st0" d="M284.3,3.3c0-1.1,1-2.2,2.2-2.2H300c1.1,0,2.2,1,2.2,2.2v75.2c0,1.1-1,2.2-2.2,2.2h-13.6c-1.1,0-2.2-1-2.2-2.2
	V3.3z"/>
<linearGradient id="SVGID_1_" gradientUnits="userSpaceOnUse" x1="-310.013" y1="-662.6093" x2="-310.013" y2="-599.8328" gradientTransform="matrix(1 0 0 1 538.1895 680.5586)">
	<stop  offset="0" style="stop-color:#523178"/>
	<stop  offset="2.204225e-02" style="stop-color:#603072"/>
	<stop  offset="0.1066" style="stop-color:#902B5E"/>
	<stop  offset="0.1907" style="stop-color:#B8274D"/>
	<stop  offset="0.2729" style="stop-color:#D72440"/>
	<stop  offset="0.3526" style="stop-color:#ED2237"/>
	<stop  offset="0.4288" style="stop-color:#FA2031"/>
	<stop  offset="0.4976" style="stop-color:#FF202F"/>
</linearGradient>
<path class="st1" d="M237,17.8h-17.8v15.4v1.3v43.9c0,1.1,1,2.2,2.2,2.2H235c1.1,0,2.1-1,2.1-2.2V33.2V17.8H237z"/>
<linearGradient id="SVGID_2_" gradientUnits="userSpaceOnUse" x1="-418.126" y1="-642.8945" x2="-373.6101" y2="-666.2431" gradientTransform="matrix(1 0 0 1 538.1895 680.5586)">
	<stop  offset="0" style="stop-color:#523178"/>
	<stop  offset="1.582406e-02" style="stop-color:#5C3074"/>
	<stop  offset="9.967538e-02" style="stop-color:#8D2B5F"/>
	<stop  offset="0.1828" style="stop-color:#B6274E"/>
	<stop  offset="0.2636" style="stop-color:#D62440"/>
	<stop  offset="0.3415" style="stop-color:#ED2237"/>
	<stop  offset="0.4152" style="stop-color:#FA2031"/>
	<stop  offset="0.4802" style="stop-color:#FF202F"/>
</linearGradient>
<path class="st2" d="M116,18.1l-0.2-0.3c-1.1,13.2,8.5,31.9,19.3,39.4l0,0c-1.4-1.4-2.8-3-4-4.8c-2-3.5-3.2-7.6-3.2-11.9
	c0-5.1,1.5-10,4.2-13.9c4-5.7,10.4-9.5,18-9.5c5.6,0,10.7,1.7,15.3,5.8c0.8,0.8,2.1,0.8,2.8,0l8.9-9.2c0.9-0.9,0.9-2.3-0.1-3.2
	C169.4,3.5,161,0,149.7,0c-14.1,0-26.5,7.1-33.8,17.8c0,0,0,0,0,0L116,18.1z M150,0c0.1,0,0.3,0,0.5,0c-0.2,0-0.4,0-0.6,0
	C149.9,0,149.9,0,150,0z"/>
<path class="st0" d="M168.5,58.2c-0.7-0.8-2.2-0.8-2.9-0.1c-4.1,3.5-9,5.4-15.2,5.4c-3.4,0-6.5-0.7-9.3-2c-2.1-1.1-4.1-2.5-5.9-4.3
	l0,0c0,0,0,0,0.1,0c0,0,0,0-0.1,0l-0.2,0.2l0.2-0.2c-10.8-7.4-20.4-26.1-19.3-39.4l0,0c-0.7,1-1.4,2-2,3.1h0c0,0,0,0,0,0.1
	c-3.3,5.9-5.1,12.7-5.1,19.9c0,7.2,1.8,13.9,5.1,19.8h0c7,12.6,20.4,21,35.9,21c10.1,0,19.9-3.5,27.6-11c0.8-0.8,0.9-2.3,0.1-3.1
	L168.5,58.2z"/>
<linearGradient id="SVGID_3_" gradientUnits="userSpaceOnUse" x1="50.4642" y1="6.7658" x2="89.2217" y2="87.2065" gradientTransform="matrix(1 0 0 1 1.000000e-03 -2.000000e-03)">
	<stop  offset="0" style="stop-color:#523178"/>
	<stop  offset="8.590823e-02" style="stop-color:#792D68"/>
	<stop  offset="0.2264" style="stop-color:#B2284F"/>
	<stop  offset="0.3468" style="stop-color:#DC233E"/>
	<stop  offset="0.4411" style="stop-color:#F52133"/>
	<stop  offset="0.4976" style="stop-color:#FF202F"/>
</linearGradient>
<path class="st3" d="M91.4,80.6H78.8c-2,0-3-0.7-4-2.8c0,0-18-39.7-28-61.8c0,0,0-0.1,0.1-0.1c2.6-4.6,4.9-6.4,8.2-7.9
	c1.5-0.7,3.1-1.1,4.7-1.3c0.8,1.1,1.6,2.5,2.5,4.1l31.2,67C94.1,79.2,93.1,80.6,91.4,80.6z"/>
<path class="st0" d="M59.7,6.6C58.1,6.8,56.5,7.3,55,8c-3.2,1.5-5.6,3.3-8.2,7.9c0,0,0,0.1-0.1,0.1c-10,22.1-28.1,61.8-28.1,61.8
	c-1,2.2-1.9,2.8-4,2.8H2.2c-1.7,0-2.6-1.5-1.9-3l31.2-67c2.8-5.4,5.1-7.5,8.6-9.1c0.1,0,0.2-0.1,0.3-0.1l0,0
	c0.1-0.1,0.2-0.1,0.3-0.2c0.2-0.1,0.4-0.2,0.6-0.2C41.4,1,41.6,1,41.7,0.9c0.2-0.1,0.5-0.1,0.7-0.2c0.2-0.1,0.4-0.1,0.6-0.1
	c0.2-0.1,0.4-0.1,0.6-0.1c0.2,0,0.4-0.1,0.5-0.1c0.8-0.1,1.7-0.2,2.6-0.2s1.7,0.1,2.5,0.2c0.2,0,0.4,0.1,0.6,0.1
	c0.6,0.1,1.3,0.3,1.9,0.5C52,1,52.2,1,52.4,1.1c0.2,0.1,0.4,0.2,0.6,0.2c0.1,0,0.2,0.1,0.3,0.1c0.1,0,0.2,0.1,0.3,0.1
	C56,2.7,57.9,4.1,59.7,6.6z"/>
<linearGradient id="SVGID_4_" gradientUnits="userSpaceOnUse" x1="465.5378" y1="6.7627" x2="504.2971" y2="87.207" gradientTransform="matrix(1 0 0 1 1.000000e-03 -2.000000e-03)">
	<stop  offset="0" style="stop-color:#523178"/>
	<stop  offset="2.204225e-02" style="stop-color:#603072"/>
	<stop  offset="0.1066" style="stop-color:#902B5E"/>
	<stop  offset="0.1907" style="stop-color:#B8274D"/>
	<stop  offset="0.2729" style="stop-color:#D72440"/>
	<stop  offset="0.3526" style="stop-color:#ED2237"/>
	<stop  offset="0.4288" style="stop-color:#FA2031"/>
	<stop  offset="0.4976" style="stop-color:#FF202F"/>
</linearGradient>
<path class="st4" d="M506.5,80.6h-12.6c-2,0-3-0.7-4-2.8c0,0-18-39.7-28.1-61.8c0,0,0-0.1,0.1-0.1c2.6-4.6,4.9-6.4,8.2-7.9
	c1.5-0.7,3.1-1.1,4.7-1.3c0.8,1.1,1.6,2.5,2.5,4.1l31.2,67C509.1,79.2,508.2,80.6,506.5,80.6z"/>
<path class="st0" d="M474.8,6.6c-1.7,0.2-3.3,0.7-4.7,1.3c-3.2,1.5-5.6,3.3-8.2,7.9c0,0,0,0.1-0.1,0.1c-10,22.1-28,61.8-28,61.8
	c-1,2.2-1.9,2.8-4,2.8h-12.6c-1.7,0-2.6-1.5-1.9-3l31.2-67c2.8-5.4,5.1-7.5,8.6-9.1c0.1,0,0.2-0.1,0.3-0.1c0,0,0,0,0,0
	c0.1-0.1,0.2-0.1,0.3-0.2c0.2-0.1,0.4-0.2,0.7-0.2c0.2-0.1,0.3-0.1,0.5-0.2c0.3-0.1,0.5-0.1,0.7-0.2c0.2-0.1,0.4-0.1,0.6-0.1
	c0.2-0.1,0.4-0.1,0.6-0.1c0.2,0,0.4-0.1,0.5-0.1c0.9-0.1,1.7-0.2,2.6-0.2c0.9,0,1.7,0.1,2.5,0.2c0.2,0,0.4,0.1,0.6,0.1
	c0.6,0.1,1.3,0.3,1.9,0.5c0.2,0.1,0.3,0.1,0.5,0.2c0.2,0.1,0.4,0.2,0.6,0.2c0.1,0,0.2,0.1,0.3,0.1c0.1,0,0.2,0.1,0.3,0.1
	C471.1,2.7,473,4.1,474.8,6.6z"/>
<g>
	
		<linearGradient id="SVGID_5_" gradientUnits="userSpaceOnUse" x1="374.3904" y1="-10450.4883" x2="413.1512" y2="-10370.041" gradientTransform="matrix(1 0 0 -1 0 -10376.4785)">
		<stop  offset="0" style="stop-color:#523178"/>
		<stop  offset="2.204225e-02" style="stop-color:#603072"/>
		<stop  offset="0.1066" style="stop-color:#902B5E"/>
		<stop  offset="0.1907" style="stop-color:#B8274D"/>
		<stop  offset="0.2729" style="stop-color:#D72440"/>
		<stop  offset="0.3526" style="stop-color:#ED2237"/>
		<stop  offset="0.4288" style="stop-color:#FA2031"/>
		<stop  offset="0.4976" style="stop-color:#FF202F"/>
	</linearGradient>
	<path class="st5" d="M415.4,0.1h-12.6c-2.1,0-3,0.7-4,2.8c0,0-18,39.7-28,61.8c0,0,0,0.1,0.1,0.1c2.5,4.6,4.9,6.4,8.2,7.9
		c1.5,0.7,3.1,1.1,4.7,1.3c0.8-1.1,1.6-2.5,2.5-4.1l31.2-67C418,1.6,417.1,0.1,415.4,0.1z"/>
	<path class="st0" d="M383.7,74.2c-1.6-0.2-3.3-0.7-4.7-1.3c-3.2-1.5-5.6-3.3-8.2-7.9c0,0,0-0.1-0.1-0.1c-10-22.1-28-61.8-28-61.8
		c-1-2.2-1.9-2.8-4-2.8h-12.6c-1.7,0-2.6,1.5-1.9,3l31.2,67c2.8,5.4,5.1,7.5,8.6,9.1c0.1,0,0.2,0.1,0.3,0.1l0,0
		c0.1,0,0.2,0.1,0.3,0.1c0.2,0.1,0.4,0.2,0.6,0.2c0.2,0.1,0.3,0.1,0.5,0.2c0.2,0.1,0.5,0.2,0.7,0.2c0.2,0.1,0.4,0.1,0.6,0.1
		c0.2,0.1,0.4,0.1,0.7,0.1c0.2,0,0.4,0.1,0.5,0.1c0.8,0.1,1.7,0.2,2.6,0.2c0.9,0,1.7-0.1,2.5-0.2c0.2,0,0.4-0.1,0.6-0.1
		c0.6-0.1,1.3-0.3,1.9-0.5c0.2-0.1,0.3-0.1,0.5-0.2c0.2-0.1,0.4-0.2,0.6-0.2c0.1,0,0.2-0.1,0.3-0.1c0.1,0,0.2-0.1,0.3-0.1
		C380,78.1,381.8,76.7,383.7,74.2z"/>
</g>
</svg>
